<svg width="21" height="21" viewBox="0 0 21 21" fill="none" xmlns="http://www.w3.org/2000/svg">
<path d="M18.636 9.136L10.5 1L1.5 10H3.5V17C3.5 17.5304 3.71071 18.0391 4.08579 18.4142C4.46086 18.7893 4.96957 19 5.5 19H12.5" stroke="#276AD9" stroke-width="2" stroke-linecap="round" stroke-linejoin="round"/>
<path d="M7.5 19V13C7.5 12.4696 7.71071 11.9609 8.08579 11.5858C8.46086 11.2107 8.96957 11 9.5 11H11.5C11.967 11 12.396 11.16 12.736 11.428M17.5 20V20.01M17.5 17C17.9498 17.0014 18.3868 16.8511 18.7407 16.5734C19.0945 16.2958 19.3444 15.907 19.45 15.4698C19.5557 15.0327 19.5109 14.5726 19.3229 14.1641C19.1349 13.7555 18.8147 13.4222 18.414 13.218C18.0162 13.0142 17.5611 12.951 17.1228 13.0387C16.6845 13.1264 16.2888 13.3598 16 13.701" stroke="#276AD9" stroke-width="2" stroke-linecap="round" stroke-linejoin="round"/>
</svg>
