<svg width="19" height="12" viewBox="0 0 19 12" fill="none" xmlns="http://www.w3.org/2000/svg">
<path d="M18.5999 2.98211L10.1999 11.4071C10.0999 11.5071 9.99157 11.5781 9.8749 11.6201C9.75824 11.6621 9.63324 11.6828 9.4999 11.6821C9.36657 11.6821 9.24157 11.6614 9.1249 11.6201C9.00824 11.5788 8.8999 11.5078 8.7999 11.4071L0.374902 2.98211C0.141569 2.74878 0.0249019 2.45711 0.0249019 2.10711C0.0249019 1.75711 0.149902 1.45711 0.399902 1.20711C0.649902 0.957114 0.941568 0.832114 1.2749 0.832114C1.60824 0.832114 1.8999 0.957114 2.1499 1.20711L9.4999 8.55711L16.8499 1.20711C17.0832 0.97378 17.3709 0.857113 17.7129 0.857113C18.0549 0.857113 18.3506 0.982113 18.5999 1.23211C18.8499 1.48211 18.9749 1.77378 18.9749 2.10711C18.9749 2.44045 18.8499 2.73211 18.5999 2.98211Z" fill="#111111"/>
</svg>
