<svg width="10" height="10" viewBox="0 0 10 10" fill="none" xmlns="http://www.w3.org/2000/svg">
<circle cx="4.9492" cy="5.41221" r="4.54722" fill="#FF0000"/>
<path d="M4.65341 4.31368C4.45131 4.31368 4.28514 4.2553 4.1549 4.13853C4.02915 4.01727 3.96628 3.86906 3.96628 3.69391C3.96628 3.51427 4.02915 3.36606 4.1549 3.24929C4.28514 3.12803 4.45131 3.0674 4.65341 3.0674C4.85102 3.0674 5.0127 3.12803 5.13845 3.24929C5.26869 3.36606 5.33381 3.51427 5.33381 3.69391C5.33381 3.86906 5.26869 4.01727 5.13845 4.13853C5.0127 4.2553 4.85102 4.31368 4.65341 4.31368ZM5.22602 4.7044V8.46344H4.07406V4.7044H5.22602Z" fill="white"/>
</svg>
