<svg width="200" height="1000" viewBox="0 0 315 380" fill="none" xmlns="http://www.w3.org/2000/svg">
<rect x="0.5" y="0.500488" width="314" height="379" rx="10" fill="#D9D9D9" fill-opacity="0.5"/>
<path fill-rule="evenodd" clip-rule="evenodd" d="M137.916 151.813C135.06 151.813 132.32 152.948 130.3 154.968C128.28 156.988 127.146 159.727 127.146 162.584V217.417C127.146 220.274 128.28 223.013 130.3 225.033C132.32 227.053 135.06 228.188 137.916 228.188H177.083C179.94 228.188 182.679 227.053 184.699 225.033C186.719 223.013 187.854 220.274 187.854 217.417V174.208C187.854 172.716 187.368 171.267 186.467 170.076L174.725 154.535C174.086 153.69 173.26 153.004 172.311 152.531C171.363 152.059 170.317 151.813 169.258 151.813H137.916ZM133.021 162.584C133.021 159.881 135.214 157.688 137.916 157.688H166.312V174.91C166.312 176.531 167.628 177.847 169.25 177.847H181.979V217.417C181.979 220.12 179.786 222.313 177.083 222.313H137.916C135.214 222.313 133.021 220.12 133.021 217.417V162.584Z" fill="#939393"/>
<path d="M172.298 193.933C172.298 193.15 171.986 192.4 171.431 191.847C170.876 191.294 170.123 190.983 169.338 190.983H145.661C144.876 190.983 144.123 191.294 143.568 191.847C143.013 192.4 142.701 193.15 142.701 193.933C142.701 194.715 143.013 195.465 143.568 196.018C144.123 196.571 144.876 196.882 145.661 196.882H169.338C170.123 196.882 170.876 196.571 171.431 196.018C171.986 195.465 172.298 194.715 172.298 193.933ZM172.298 209.662C172.298 208.88 171.986 208.129 171.431 207.576C170.876 207.023 170.123 206.713 169.338 206.713H145.661C144.876 206.713 144.123 207.023 143.568 207.576C143.013 208.129 142.701 208.88 142.701 209.662C142.701 210.444 143.013 211.194 143.568 211.747C144.123 212.3 144.876 212.611 145.661 212.611H169.338C170.123 212.611 170.876 212.3 171.431 211.747C171.986 211.194 172.298 210.444 172.298 209.662Z" fill="#939393"/>
</svg>
