<svg width="33" height="26" viewBox="0 0 33 26" fill="none" xmlns="http://www.w3.org/2000/svg">
<g clip-path="url(#clip0_21_2957)">
<path d="M6.56215 25.4606V23.806C6.56215 23.1715 6.1779 22.758 5.51927 22.758C5.19002 22.758 4.83327 22.8683 4.58627 23.2268C4.39427 22.9234 4.1199 22.758 3.70827 22.758C3.43377 22.758 3.15952 22.8406 2.9399 23.144V22.8131H2.36365V25.4606H2.9399V23.9989C2.9399 23.5302 3.1869 23.3095 3.57115 23.3095C3.95515 23.3095 4.1474 23.5577 4.1474 23.9989V25.4606H4.72365V23.9989C4.72365 23.5302 4.9979 23.3095 5.35465 23.3095C5.7389 23.3095 5.9309 23.5577 5.9309 23.9989V25.4606H6.56215ZM15.096 22.8131H14.1631V22.0134H13.5869V22.8131H13.0655V23.337H13.5868V24.5506C13.5868 25.1573 13.8338 25.5158 14.4924 25.5158C14.7394 25.5158 15.0136 25.4331 15.2059 25.3228L15.0411 24.8263C14.8765 24.9366 14.6845 24.9643 14.5473 24.9643C14.2729 24.9643 14.1631 24.7988 14.1631 24.5229V23.337H15.096V22.8131ZM19.9805 22.7578C19.6513 22.7578 19.4318 22.9234 19.2945 23.144V22.8131H18.7183V25.4606H19.2945V23.9714C19.2945 23.5302 19.4865 23.282 19.8433 23.282C19.953 23.282 20.0903 23.3096 20.2 23.3371L20.3646 22.7856C20.2549 22.758 20.0903 22.758 19.9805 22.758V22.7578ZM12.599 23.0337C12.3245 22.8406 11.9404 22.758 11.5288 22.758C10.8703 22.758 10.4313 23.0889 10.4313 23.6129C10.4313 24.0542 10.7605 24.3023 11.3368 24.3851L11.6111 24.4127C11.913 24.4678 12.0776 24.5506 12.0776 24.6885C12.0776 24.8815 11.8581 25.0194 11.4739 25.0194C11.0898 25.0194 10.7879 24.8815 10.5958 24.7437L10.3214 25.1849C10.6233 25.4055 11.0349 25.5158 11.4464 25.5158C12.2148 25.5158 12.6539 25.1573 12.6539 24.6609C12.6539 24.192 12.2971 23.9438 11.7483 23.8611L11.4739 23.8335C11.2269 23.8058 11.0349 23.7508 11.0349 23.5854C11.0349 23.3923 11.2269 23.282 11.5288 23.282C11.8581 23.282 12.1874 23.4198 12.352 23.5026L12.599 23.0337ZM27.9109 22.758C27.5815 22.758 27.362 22.9234 27.2248 23.144V22.8131H26.6485V25.4606H27.2248V23.9714C27.2248 23.5302 27.4169 23.282 27.7735 23.282C27.8834 23.282 28.0206 23.3096 28.1304 23.3371L28.295 22.7856C28.1853 22.758 28.0206 22.758 27.9109 22.758ZM20.5568 24.1369C20.5568 24.9366 21.1055 25.5158 21.9563 25.5158C22.3404 25.5158 22.6148 25.4331 22.8891 25.2125L22.6148 24.7437C22.3953 24.9091 22.1758 24.9918 21.9288 24.9918C21.4623 24.9918 21.133 24.6609 21.133 24.1369C21.133 23.6405 21.4623 23.3095 21.9288 23.282C22.1758 23.282 22.3953 23.3646 22.6148 23.5302L22.8891 23.0614C22.6148 22.8406 22.3404 22.758 21.9563 22.758C21.1055 22.758 20.5568 23.3371 20.5568 24.1369ZM25.8803 24.1369V22.8131H25.304V23.144C25.1119 22.8959 24.8375 22.758 24.4808 22.758C23.7399 22.758 23.1636 23.3371 23.1636 24.1369C23.1636 24.9366 23.7399 25.5158 24.4808 25.5158C24.8649 25.5158 25.1394 25.378 25.304 25.1297V25.4606H25.8803V24.1369ZM23.7673 24.1369C23.7673 23.668 24.0691 23.282 24.563 23.282C25.0295 23.282 25.3589 23.6405 25.3589 24.1369C25.3589 24.6057 25.0295 24.9918 24.563 24.9918C24.0691 24.9641 23.7673 24.6057 23.7673 24.1369ZM16.8798 22.758C16.1114 22.758 15.5625 23.3095 15.5625 24.1369C15.5625 24.9643 16.1113 25.5158 16.9071 25.5158C17.2913 25.5158 17.6755 25.4055 17.9774 25.1573L17.7029 24.7437C17.4834 24.9091 17.209 25.0194 16.9346 25.0194C16.5779 25.0194 16.2211 24.854 16.1388 24.385H18.0871V24.1645C18.1146 23.3095 17.6208 22.758 16.8798 22.758ZM16.8798 23.2543C17.2364 23.2543 17.4835 23.4751 17.5383 23.8888H16.1663C16.2211 23.5302 16.4681 23.2543 16.8798 23.2543ZM31.1763 24.1369V21.7651H30.6V23.144C30.4079 22.8959 30.1335 22.758 29.7768 22.758C29.0359 22.758 28.4596 23.3371 28.4596 24.1369C28.4596 24.9366 29.0359 25.5158 29.7768 25.5158C30.161 25.5158 30.4354 25.378 30.6 25.1297V25.4606H31.1763V24.1369ZM29.0634 24.1369C29.0634 23.668 29.3651 23.282 29.8591 23.282C30.3256 23.282 30.6549 23.6405 30.6549 24.1369C30.6549 24.6057 30.3256 24.9918 29.8591 24.9918C29.3651 24.9641 29.0634 24.6057 29.0634 24.1369ZM9.80002 24.1369V22.8131H9.22377V23.144C9.03165 22.8959 8.75727 22.758 8.40052 22.758C7.65965 22.758 7.0834 23.3371 7.0834 24.1369C7.0834 24.9366 7.65965 25.5158 8.40052 25.5158C8.78477 25.5158 9.05915 25.378 9.22377 25.1297V25.4606H9.80002V24.1369ZM7.65965 24.1369C7.65965 23.668 7.96152 23.282 8.4554 23.282C8.9219 23.282 9.25127 23.6405 9.25127 24.1369C9.25127 24.6057 8.9219 24.9918 8.4554 24.9918C7.96152 24.9641 7.65965 24.6057 7.65965 24.1369Z" fill="black"/>
<path d="M12.4069 2.70831H21.0506V18.3177H12.4069V2.70831Z" fill="#FF5F00"/>
<path d="M12.9558 10.5131C12.9558 7.34162 14.4375 4.52856 16.715 2.70833C15.0413 1.38459 12.9284 0.584839 10.6234 0.584839C5.1625 0.584839 0.744629 5.02491 0.744629 10.5131C0.744629 16.0012 5.1625 20.4414 10.6233 20.4414C12.9283 20.4414 15.0411 19.6416 16.715 18.3178C14.4375 16.5252 12.9558 13.6846 12.9558 10.5131Z" fill="#EB001B"/>
<path d="M32.7129 10.5131C32.7129 16.0012 28.2951 20.4414 22.8343 20.4414C20.5293 20.4414 18.4164 19.6416 16.7426 18.3178C19.0476 16.4977 20.5019 13.6846 20.5019 10.5131C20.5019 7.34162 19.0201 4.52856 16.7426 2.70833C18.4163 1.38459 20.5293 0.584839 22.8343 0.584839C28.2951 0.584839 32.7129 5.05255 32.7129 10.5131Z" fill="#F79E1B"/>
</g>
<defs>
<clipPath id="clip0_21_2957">
<rect width="32" height="25" fill="white" transform="translate(0.744629 0.584839)"/>
</clipPath>
</defs>
</svg>
