<svg width="351" height="225" viewBox="0 0 351 225" fill="none" xmlns="http://www.w3.org/2000/svg">
<rect width="351" height="225" fill="#D9D9D9"/>
<rect x="47.0201" y="32.5801" width="294.4" height="152.72" stroke="#F5F5F5" stroke-width="0.92"/>
<path d="M46.5601 82.7202H341.88" stroke="#F5F5F5" stroke-width="0.92"/>
<path d="M46.5601 57.8799H341.88" stroke="#F5F5F5" stroke-width="0.92"/>
<path d="M46.5601 107.56H341.88" stroke="#F5F5F5" stroke-width="0.92"/>
<path d="M46.5601 132.4H341.88" stroke="#F5F5F5" stroke-width="0.92"/>
<path d="M46.5601 157.24H341.88" stroke="#F5F5F5" stroke-width="0.92"/>
<path d="M96.24 32.1201L96.24 185.76" stroke="#F5F5F5" stroke-width="0.92"/>
<path d="M145 32.1201L145 185.76" stroke="#F5F5F5" stroke-width="0.92"/>
<path d="M193.76 32.1201L193.76 185.76" stroke="#F5F5F5" stroke-width="0.92"/>
<path d="M242.52 32.1201L242.52 185.76" stroke="#F5F5F5" stroke-width="0.92"/>
<path d="M291.28 32.1201L291.28 185.76" stroke="#F5F5F5" stroke-width="0.92"/>
<path d="M13.1068 185.72V185.015L15.757 182.113C16.068 181.774 16.3241 181.478 16.5254 181.227C16.7266 180.974 16.8756 180.736 16.9723 180.514C17.0716 180.289 17.1213 180.054 17.1213 179.808C17.1213 179.526 17.0534 179.282 16.9174 179.075C16.7841 178.869 16.6012 178.709 16.3686 178.597C16.136 178.484 15.8746 178.428 15.5845 178.428C15.2761 178.428 15.0069 178.492 14.7769 178.62C14.5495 178.746 14.3731 178.922 14.2476 179.15C14.1248 179.377 14.0634 179.644 14.0634 179.949H13.1381C13.1381 179.479 13.2466 179.066 13.4635 178.71C13.6805 178.355 13.9758 178.078 14.3495 177.879C14.7259 177.681 15.148 177.581 15.6159 177.581C16.0863 177.581 16.5032 177.681 16.8665 177.879C17.2298 178.078 17.5147 178.346 17.7211 178.683C17.9276 179.02 18.0309 179.395 18.0309 179.808C18.0309 180.104 17.9773 180.392 17.8701 180.675C17.7656 180.954 17.5826 181.267 17.3213 181.612C17.0625 181.954 16.7031 182.372 16.2431 182.866L14.4397 184.795V184.858H18.172V185.72H13.1068ZM22.41 185.83C21.8193 185.83 21.3162 185.669 20.9006 185.348C20.4851 185.024 20.1675 184.555 19.948 183.94C19.7284 183.324 19.6186 182.579 19.6186 181.706C19.6186 180.838 19.7284 180.097 19.948 179.483C20.1701 178.866 20.489 178.395 20.9045 178.071C21.3227 177.745 21.8245 177.581 22.41 177.581C22.9955 177.581 23.496 177.745 23.9115 178.071C24.3297 178.395 24.6486 178.866 24.8681 179.483C25.0903 180.097 25.2014 180.838 25.2014 181.706C25.2014 182.579 25.0916 183.324 24.872 183.94C24.6525 184.555 24.3349 185.024 23.9194 185.348C23.5038 185.669 23.0007 185.83 22.41 185.83ZM22.41 184.967C22.9955 184.967 23.4502 184.685 23.7743 184.121C24.0984 183.556 24.2605 182.751 24.2605 181.706C24.2605 181.01 24.186 180.418 24.037 179.93C23.8906 179.441 23.6789 179.069 23.4019 178.812C23.1274 178.556 22.7968 178.428 22.41 178.428C21.8298 178.428 21.3763 178.714 21.0496 179.287C20.7229 179.857 20.5595 180.663 20.5595 181.706C20.5595 182.401 20.6327 182.992 20.7791 183.478C20.9255 183.964 21.1359 184.334 21.4103 184.587C21.6873 184.841 22.0206 184.967 22.41 184.967ZM29.31 185.83C28.7193 185.83 28.2162 185.669 27.8006 185.348C27.3851 185.024 27.0675 184.555 26.848 183.94C26.6284 183.324 26.5186 182.579 26.5186 181.706C26.5186 180.838 26.6284 180.097 26.848 179.483C27.0701 178.866 27.389 178.395 27.8045 178.071C28.2227 177.745 28.7245 177.581 29.31 177.581C29.8955 177.581 30.396 177.745 30.8115 178.071C31.2297 178.395 31.5486 178.866 31.7681 179.483C31.9903 180.097 32.1014 180.838 32.1014 181.706C32.1014 182.579 31.9916 183.324 31.772 183.94C31.5525 184.555 31.2349 185.024 30.8194 185.348C30.4038 185.669 29.9007 185.83 29.31 185.83ZM29.31 184.967C29.8955 184.967 30.3502 184.685 30.6743 184.121C30.9984 183.556 31.1605 182.751 31.1605 181.706C31.1605 181.01 31.086 180.418 30.937 179.93C30.7906 179.441 30.5789 179.069 30.3019 178.812C30.0274 178.556 29.6968 178.428 29.31 178.428C28.7298 178.428 28.2763 178.714 27.9496 179.287C27.6229 179.857 27.4595 180.663 27.4595 181.706C27.4595 182.401 27.5327 182.992 27.6791 183.478C27.8255 183.964 28.0359 184.334 28.3103 184.587C28.5873 184.841 28.9206 184.967 29.31 184.967Z" fill="#111111"/>
<path d="M12.5197 130.713V129.913L16.0481 124.331H16.6283V125.57H16.2363L13.5704 129.788V129.851H18.3219V130.713H12.5197ZM16.299 132.36V130.47V130.098V124.331H17.2242V132.36H16.299ZM22.41 132.47C21.8193 132.47 21.3162 132.309 20.9006 131.987C20.4851 131.663 20.1675 131.194 19.948 130.58C19.7284 129.963 19.6186 129.218 19.6186 128.345C19.6186 127.478 19.7284 126.737 19.948 126.122C20.1701 125.506 20.489 125.035 20.9045 124.711C21.3227 124.384 21.8245 124.221 22.41 124.221C22.9955 124.221 23.496 124.384 23.9115 124.711C24.3297 125.035 24.6486 125.506 24.8681 126.122C25.0903 126.737 25.2014 127.478 25.2014 128.345C25.2014 129.218 25.0916 129.963 24.872 130.58C24.6525 131.194 24.3349 131.663 23.9194 131.987C23.5038 132.309 23.0007 132.47 22.41 132.47ZM22.41 131.607C22.9955 131.607 23.4502 131.325 23.7743 130.76C24.0984 130.196 24.2605 129.391 24.2605 128.345C24.2605 127.65 24.186 127.058 24.037 126.569C23.8906 126.081 23.6789 125.708 23.4019 125.452C23.1274 125.196 22.7968 125.068 22.41 125.068C21.8298 125.068 21.3763 125.354 21.0496 125.926C20.7229 126.496 20.5595 127.302 20.5595 128.345C20.5595 129.041 20.6327 129.631 20.7791 130.117C20.9255 130.603 21.1359 130.973 21.4103 131.227C21.6873 131.48 22.0206 131.607 22.41 131.607ZM29.31 132.47C28.7193 132.47 28.2162 132.309 27.8006 131.987C27.3851 131.663 27.0675 131.194 26.848 130.58C26.6284 129.963 26.5186 129.218 26.5186 128.345C26.5186 127.478 26.6284 126.737 26.848 126.122C27.0701 125.506 27.389 125.035 27.8045 124.711C28.2227 124.384 28.7245 124.221 29.31 124.221C29.8955 124.221 30.396 124.384 30.8115 124.711C31.2297 125.035 31.5486 125.506 31.7681 126.122C31.9903 126.737 32.1014 127.478 32.1014 128.345C32.1014 129.218 31.9916 129.963 31.772 130.58C31.5525 131.194 31.2349 131.663 30.8194 131.987C30.4038 132.309 29.9007 132.47 29.31 132.47ZM29.31 131.607C29.8955 131.607 30.3502 131.325 30.6743 130.76C30.9984 130.196 31.1605 129.391 31.1605 128.345C31.1605 127.65 31.086 127.058 30.937 126.569C30.7906 126.081 30.5789 125.708 30.3019 125.452C30.0274 125.196 29.6968 125.068 29.31 125.068C28.7298 125.068 28.2763 125.354 27.9496 125.926C27.6229 126.496 27.4595 127.302 27.4595 128.345C27.4595 129.041 27.5327 129.631 27.6791 130.117C27.8255 130.603 28.0359 130.973 28.3103 131.227C28.5873 131.48 28.9206 131.607 29.31 131.607Z" fill="#111111"/>
<path d="M15.5678 82.7899C15.2385 82.7847 14.9092 82.722 14.5799 82.6018C14.2506 82.4815 13.95 82.279 13.6782 81.9941C13.4063 81.7066 13.1881 81.3185 13.0235 80.8297C12.8588 80.3384 12.7765 79.7215 12.7765 78.9793C12.7765 78.2684 12.8431 77.6385 12.9764 77.0896C13.1097 76.5381 13.3031 76.0742 13.5566 75.6978C13.8102 75.3189 14.116 75.0314 14.474 74.8353C14.8347 74.6393 15.2411 74.5413 15.6933 74.5413C16.1428 74.5413 16.5427 74.6315 16.8929 74.8118C17.2458 74.9896 17.5333 75.2378 17.7554 75.5567C17.9776 75.8756 18.1214 76.2428 18.1867 76.6584H17.2301C17.1412 76.2977 16.9687 75.9984 16.7126 75.7606C16.4565 75.5227 16.1167 75.4038 15.6933 75.4038C15.0712 75.4038 14.5812 75.6743 14.2231 76.2153C13.8677 76.7564 13.6886 77.5156 13.686 78.4931H13.7487C13.8951 78.271 14.0689 78.0815 14.2702 77.9247C14.474 77.7652 14.6988 77.6424 14.9445 77.5561C15.1902 77.4699 15.4502 77.4268 15.7246 77.4268C16.1846 77.4268 16.6054 77.5418 16.987 77.7718C17.3686 77.9992 17.6744 78.3141 17.9044 78.7166C18.1344 79.1165 18.2494 79.5752 18.2494 80.0927C18.2494 80.5893 18.1383 81.044 17.9162 81.457C17.694 81.8673 17.3817 82.194 16.9792 82.4371C16.5793 82.6776 16.1089 82.7952 15.5678 82.7899ZM15.5678 81.9274C15.8971 81.9274 16.1925 81.8451 16.4539 81.6805C16.7178 81.5158 16.9256 81.2949 17.0772 81.0179C17.2314 80.7409 17.3085 80.4324 17.3085 80.0927C17.3085 79.7607 17.234 79.4589 17.085 79.1871C16.9387 78.9126 16.7361 78.6944 16.4774 78.5323C16.2212 78.3703 15.9285 78.2893 15.5992 78.2893C15.3509 78.2893 15.1196 78.3389 14.9053 78.4382C14.691 78.5349 14.5028 78.6682 14.3407 78.8381C14.1813 79.008 14.0558 79.2027 13.9644 79.4223C13.8729 79.6392 13.8271 79.8679 13.8271 80.1084C13.8271 80.4272 13.9016 80.7252 14.0506 81.0022C14.2022 81.2793 14.4087 81.5027 14.67 81.6726C14.934 81.8425 15.2333 81.9274 15.5678 81.9274ZM22.41 82.7899C21.8193 82.7899 21.3162 82.6292 20.9006 82.3077C20.4851 81.9836 20.1675 81.5145 19.948 80.9003C19.7284 80.2835 19.6186 79.5386 19.6186 78.6656C19.6186 77.7979 19.7284 77.0569 19.948 76.4427C20.1701 75.8259 20.489 75.3555 20.9045 75.0314C21.3227 74.7047 21.8245 74.5413 22.41 74.5413C22.9955 74.5413 23.496 74.7047 23.9115 75.0314C24.3297 75.3555 24.6486 75.8259 24.8681 76.4427C25.0903 77.0569 25.2014 77.7979 25.2014 78.6656C25.2014 79.5386 25.0916 80.2835 24.872 80.9003C24.6525 81.5145 24.3349 81.9836 23.9194 82.3077C23.5038 82.6292 23.0007 82.7899 22.41 82.7899ZM22.41 81.9274C22.9955 81.9274 23.4502 81.6452 23.7743 81.0806C24.0984 80.5161 24.2605 79.7111 24.2605 78.6656C24.2605 77.9704 24.186 77.3784 24.037 76.8897C23.8906 76.4009 23.6789 76.0285 23.4019 75.7723C23.1274 75.5162 22.7968 75.3881 22.41 75.3881C21.8298 75.3881 21.3763 75.6743 21.0496 76.2467C20.7229 76.8165 20.5595 77.6228 20.5595 78.6656C20.5595 79.3609 20.6327 79.9515 20.7791 80.4377C20.9255 80.9238 21.1359 81.2936 21.4103 81.5472C21.6873 81.8007 22.0206 81.9274 22.41 81.9274ZM29.31 82.7899C28.7193 82.7899 28.2162 82.6292 27.8006 82.3077C27.3851 81.9836 27.0675 81.5145 26.848 80.9003C26.6284 80.2835 26.5186 79.5386 26.5186 78.6656C26.5186 77.7979 26.6284 77.0569 26.848 76.4427C27.0701 75.8259 27.389 75.3555 27.8045 75.0314C28.2227 74.7047 28.7245 74.5413 29.31 74.5413C29.8955 74.5413 30.396 74.7047 30.8115 75.0314C31.2297 75.3555 31.5486 75.8259 31.7681 76.4427C31.9903 77.0569 32.1014 77.7979 32.1014 78.6656C32.1014 79.5386 31.9916 80.2835 31.772 80.9003C31.5525 81.5145 31.2349 81.9836 30.8194 82.3077C30.4038 82.6292 29.9007 82.7899 29.31 82.7899ZM29.31 81.9274C29.8955 81.9274 30.3502 81.6452 30.6743 81.0806C30.9984 80.5161 31.1605 79.7111 31.1605 78.6656C31.1605 77.9704 31.086 77.3784 30.937 76.8897C30.7906 76.4009 30.5789 76.0285 30.3019 75.7723C30.0274 75.5162 29.6968 75.3881 29.31 75.3881C28.7298 75.3881 28.2763 75.6743 27.9496 76.2467C27.6229 76.8165 27.4595 77.6228 27.4595 78.6656C27.4595 79.3609 27.5327 79.9515 27.6791 80.4377C27.8255 80.9238 28.0359 81.2936 28.3103 81.5472C28.5873 81.8007 28.9206 81.9274 29.31 81.9274Z" fill="#111111"/>
<path d="M15.56 33.1098C15.0216 33.1098 14.5459 33.0144 14.1329 32.8236C13.7226 32.6302 13.4024 32.3649 13.1724 32.0277C12.9424 31.688 12.8287 31.3011 12.8314 30.8673C12.8287 30.5275 12.8954 30.2139 13.0313 29.9264C13.1672 29.6362 13.3528 29.3945 13.588 29.2011C13.8258 29.0051 14.0911 28.8809 14.3839 28.8286V28.7816C13.9996 28.6823 13.6939 28.4666 13.4665 28.1347C13.2391 27.8002 13.1267 27.4199 13.1293 26.9939C13.1267 26.5861 13.2299 26.2215 13.439 25.9001C13.6481 25.5786 13.9356 25.3251 14.3015 25.1395C14.67 24.9539 15.0895 24.8611 15.56 24.8611C16.0252 24.8611 16.4408 24.9539 16.8067 25.1395C17.1726 25.3251 17.4601 25.5786 17.6692 25.9001C17.8809 26.2215 17.9881 26.5861 17.9907 26.9939C17.9881 27.4199 17.8717 27.8002 17.6417 28.1347C17.4144 28.4666 17.1125 28.6823 16.7361 28.7816V28.8286C17.0262 28.8809 17.2876 29.0051 17.5202 29.2011C17.7528 29.3945 17.9384 29.6362 18.0769 29.9264C18.2154 30.2139 18.286 30.5275 18.2886 30.8673C18.286 31.3011 18.1684 31.688 17.9358 32.0277C17.7058 32.3649 17.3856 32.6302 16.9753 32.8236C16.5675 33.0144 16.0958 33.1098 15.56 33.1098ZM15.56 32.2473C15.9233 32.2473 16.2369 32.1885 16.5009 32.0709C16.7649 31.9532 16.9687 31.7873 17.1125 31.573C17.2562 31.3586 17.3294 31.1077 17.332 30.8202C17.3294 30.517 17.251 30.2491 17.0968 30.0165C16.9426 29.7839 16.7322 29.601 16.4656 29.4677C16.2016 29.3344 15.8998 29.2677 15.56 29.2677C15.2176 29.2677 14.9118 29.3344 14.6426 29.4677C14.376 29.601 14.1656 29.7839 14.0114 30.0165C13.8598 30.2491 13.7853 30.517 13.7879 30.8202C13.7853 31.1077 13.8546 31.3586 13.9957 31.573C14.1395 31.7873 14.3446 31.9532 14.6112 32.0709C14.8778 32.1885 15.1941 32.2473 15.56 32.2473ZM15.56 28.4366C15.8475 28.4366 16.1023 28.3791 16.3245 28.2641C16.5492 28.1491 16.7257 27.9884 16.8537 27.7819C16.9818 27.5754 17.0471 27.3336 17.0498 27.0566C17.0471 26.7848 16.9831 26.5482 16.8577 26.347C16.7322 26.1431 16.5584 25.9863 16.3362 25.8765C16.1141 25.7641 15.8553 25.708 15.56 25.708C15.2594 25.708 14.9967 25.7641 14.772 25.8765C14.5472 25.9863 14.3734 26.1431 14.2506 26.347C14.1277 26.5482 14.0676 26.7848 14.0702 27.0566C14.0676 27.3336 14.129 27.5754 14.2545 27.7819C14.3825 27.9884 14.559 28.1491 14.7837 28.2641C15.0085 28.3791 15.2673 28.4366 15.56 28.4366ZM22.41 33.1098C21.8193 33.1098 21.3162 32.949 20.9006 32.6276C20.4851 32.3035 20.1675 31.8343 19.948 31.2201C19.7284 30.6033 19.6186 29.8584 19.6186 28.9855C19.6186 28.1177 19.7284 27.3768 19.948 26.7626C20.1701 26.1457 20.489 25.6753 20.9045 25.3512C21.3227 25.0245 21.8245 24.8611 22.41 24.8611C22.9955 24.8611 23.496 25.0245 23.9115 25.3512C24.3297 25.6753 24.6486 26.1457 24.8681 26.7626C25.0903 27.3768 25.2014 28.1177 25.2014 28.9855C25.2014 29.8584 25.0916 30.6033 24.872 31.2201C24.6525 31.8343 24.3349 32.3035 23.9194 32.6276C23.5038 32.949 23.0007 33.1098 22.41 33.1098ZM22.41 32.2473C22.9955 32.2473 23.4502 31.965 23.7743 31.4005C24.0984 30.8359 24.2605 30.0309 24.2605 28.9855C24.2605 28.2902 24.186 27.6982 24.037 27.2095C23.8906 26.7207 23.6789 26.3483 23.4019 26.0922C23.1274 25.836 22.7968 25.708 22.41 25.708C21.8298 25.708 21.3763 25.9941 21.0496 26.5665C20.7229 27.1363 20.5595 27.9426 20.5595 28.9855C20.5595 29.6807 20.6327 30.2714 20.7791 30.7575C20.9255 31.2436 21.1359 31.6135 21.4103 31.867C21.6873 32.1205 22.0206 32.2473 22.41 32.2473ZM29.31 33.1098C28.7193 33.1098 28.2162 32.949 27.8006 32.6276C27.3851 32.3035 27.0675 31.8343 26.848 31.2201C26.6284 30.6033 26.5186 29.8584 26.5186 28.9855C26.5186 28.1177 26.6284 27.3768 26.848 26.7626C27.0701 26.1457 27.389 25.6753 27.8045 25.3512C28.2227 25.0245 28.7245 24.8611 29.31 24.8611C29.8955 24.8611 30.396 25.0245 30.8115 25.3512C31.2297 25.6753 31.5486 26.1457 31.7681 26.7626C31.9903 27.3768 32.1014 28.1177 32.1014 28.9855C32.1014 29.8584 31.9916 30.6033 31.772 31.2201C31.5525 31.8343 31.2349 32.3035 30.8194 32.6276C30.4038 32.949 29.9007 33.1098 29.31 33.1098ZM29.31 32.2473C29.8955 32.2473 30.3502 31.965 30.6743 31.4005C30.9984 30.8359 31.1605 30.0309 31.1605 28.9855C31.1605 28.2902 31.086 27.6982 30.937 27.2095C30.7906 26.7207 30.5789 26.3483 30.3019 26.0922C30.0274 25.836 29.6968 25.708 29.31 25.708C28.7298 25.708 28.2763 25.9941 27.9496 26.5665C27.6229 27.1363 27.4595 27.9426 27.4595 28.9855C27.4595 29.6807 27.5327 30.2714 27.6791 30.7575C27.8255 31.2436 28.0359 31.6135 28.3103 31.867C28.5873 32.1205 28.9206 32.2473 29.31 32.2473Z" fill="#111111"/>
<path d="M61.4711 191.749H62.2813V196.532C62.2813 196.959 62.2029 197.322 62.0461 197.62C61.8893 197.918 61.6682 198.145 61.3829 198.299C61.0976 198.454 60.7611 198.531 60.3734 198.531C60.0075 198.531 59.6819 198.465 59.3965 198.332C59.1112 198.197 58.8869 198.005 58.7235 197.757C58.5602 197.509 58.4785 197.214 58.4785 196.872H59.2757C59.2757 197.061 59.3225 197.227 59.4162 197.368C59.512 197.508 59.6427 197.617 59.8082 197.695C59.9737 197.773 60.1621 197.813 60.3734 197.813C60.6064 197.813 60.8046 197.764 60.968 197.666C61.1313 197.568 61.2555 197.424 61.3404 197.234C61.4276 197.043 61.4711 196.809 61.4711 196.532V191.749ZM65.2772 198.558C64.9592 198.558 64.6706 198.498 64.4115 198.378C64.1523 198.256 63.9465 198.081 63.794 197.852C63.6415 197.621 63.5653 197.342 63.5653 197.016C63.5653 196.728 63.6219 196.495 63.7352 196.316C63.8484 196.136 63.9998 195.994 64.1893 195.892C64.3788 195.789 64.5879 195.713 64.8166 195.663C65.0474 195.611 65.2794 195.569 65.5125 195.539C65.8174 195.5 66.0646 195.47 66.2541 195.451C66.4457 195.429 66.5851 195.393 66.6723 195.343C66.7616 195.293 66.8062 195.206 66.8062 195.081V195.055C66.8062 194.733 66.718 194.482 66.5416 194.304C66.3673 194.125 66.1027 194.036 65.7477 194.036C65.3796 194.036 65.091 194.117 64.8819 194.278C64.6728 194.439 64.5258 194.611 64.4409 194.794L63.709 194.533C63.8397 194.228 64.014 193.99 64.2318 193.82C64.4518 193.648 64.6913 193.528 64.9505 193.461C65.2119 193.391 65.4689 193.356 65.7215 193.356C65.8827 193.356 66.0679 193.376 66.2769 193.415C66.4882 193.452 66.6919 193.53 66.8879 193.647C67.0861 193.765 67.2505 193.942 67.3812 194.18C67.5119 194.417 67.5772 194.735 67.5772 195.134V198.44H66.8062V197.76H66.767C66.7147 197.869 66.6276 197.986 66.5056 198.11C66.3837 198.234 66.2214 198.34 66.0188 198.427C65.8163 198.514 65.5691 198.558 65.2772 198.558ZM65.3948 197.865C65.6998 197.865 65.9568 197.805 66.1659 197.685C66.3771 197.565 66.5361 197.411 66.6429 197.221C66.7518 197.032 66.8062 196.833 66.8062 196.623V195.918C66.7735 195.957 66.7017 195.993 66.5906 196.026C66.4817 196.056 66.3554 196.083 66.2116 196.107C66.07 196.129 65.9317 196.149 65.7967 196.166C65.6638 196.181 65.556 196.194 65.4733 196.205C65.2729 196.231 65.0856 196.274 64.9113 196.333C64.7393 196.389 64.5999 196.475 64.4931 196.591C64.3886 196.704 64.3363 196.859 64.3363 197.055C64.3363 197.323 64.4354 197.525 64.6336 197.662C64.834 197.797 65.0877 197.865 65.3948 197.865ZM69.7555 195.421V198.44H68.9845V193.422H69.7294V194.206H69.7947C69.9124 193.951 70.0909 193.746 70.3305 193.592C70.5701 193.435 70.8794 193.356 71.2584 193.356C71.5981 193.356 71.8954 193.426 72.1503 193.566C72.4051 193.703 72.6033 193.912 72.7449 194.193C72.8865 194.472 72.9572 194.824 72.9572 195.251V198.44H72.1862V195.304C72.1862 194.909 72.0838 194.602 71.8791 194.382C71.6744 194.16 71.3934 194.049 71.0362 194.049C70.7901 194.049 70.5701 194.102 70.3763 194.209C70.1846 194.316 70.0332 194.472 69.9222 194.676C69.8111 194.881 69.7555 195.129 69.7555 195.421Z" fill="#111111"/>
<path d="M115.334 191.749H116.301L118.575 197.303H118.654L120.928 191.749H121.895V198.44H121.137V193.356H121.071L118.98 198.44H118.249L116.158 193.356H116.092V198.44H115.334V191.749ZM124.891 198.558C124.573 198.558 124.285 198.498 124.026 198.378C123.766 198.256 123.561 198.081 123.408 197.852C123.256 197.621 123.179 197.342 123.179 197.016C123.179 196.728 123.236 196.495 123.349 196.316C123.463 196.136 123.614 195.994 123.803 195.892C123.993 195.789 124.202 195.713 124.431 195.663C124.662 195.611 124.893 195.569 125.127 195.539C125.431 195.5 125.679 195.47 125.868 195.451C126.06 195.429 126.199 195.393 126.286 195.343C126.376 195.293 126.42 195.206 126.42 195.081V195.055C126.42 194.733 126.332 194.482 126.156 194.304C125.981 194.125 125.717 194.036 125.362 194.036C124.994 194.036 124.705 194.117 124.496 194.278C124.287 194.439 124.14 194.611 124.055 194.794L123.323 194.533C123.454 194.228 123.628 193.99 123.846 193.82C124.066 193.648 124.305 193.528 124.565 193.461C124.826 193.391 125.083 193.356 125.336 193.356C125.497 193.356 125.682 193.376 125.891 193.415C126.102 193.452 126.306 193.53 126.502 193.647C126.7 193.765 126.865 193.942 126.995 194.18C127.126 194.417 127.191 194.735 127.191 195.134V198.44H126.42V197.76H126.381C126.329 197.869 126.242 197.986 126.12 198.11C125.998 198.234 125.835 198.34 125.633 198.427C125.43 198.514 125.183 198.558 124.891 198.558ZM125.009 197.865C125.314 197.865 125.571 197.805 125.78 197.685C125.991 197.565 126.15 197.411 126.257 197.221C126.366 197.032 126.42 196.833 126.42 196.623V195.918C126.388 195.957 126.316 195.993 126.205 196.026C126.096 196.056 125.969 196.083 125.826 196.107C125.684 196.129 125.546 196.149 125.411 196.166C125.278 196.181 125.17 196.194 125.087 196.205C124.887 196.231 124.7 196.274 124.525 196.333C124.353 196.389 124.214 196.475 124.107 196.591C124.003 196.704 123.95 196.859 123.95 197.055C123.95 197.323 124.049 197.525 124.248 197.662C124.448 197.797 124.702 197.865 125.009 197.865ZM128.599 198.44V193.422H129.343V194.18H129.396C129.487 193.931 129.653 193.73 129.892 193.575C130.132 193.421 130.402 193.343 130.703 193.343C130.759 193.343 130.83 193.344 130.915 193.347C131 193.349 131.064 193.352 131.108 193.356V194.141C131.082 194.134 131.022 194.124 130.928 194.111C130.836 194.096 130.74 194.088 130.637 194.088C130.393 194.088 130.175 194.139 129.984 194.242C129.794 194.342 129.644 194.481 129.533 194.66C129.424 194.836 129.37 195.038 129.37 195.264V198.44H128.599Z" fill="#111111"/>
<path d="M163.335 191.749H164.302L166.576 197.303H166.655L168.928 191.749H169.895V198.44H169.137V193.356H169.072L166.981 198.44H166.249L164.158 193.356H164.093V198.44H163.335V191.749ZM172.892 198.558C172.574 198.558 172.286 198.498 172.026 198.378C171.767 198.256 171.561 198.081 171.409 197.852C171.256 197.621 171.18 197.342 171.18 197.016C171.18 196.728 171.237 196.495 171.35 196.316C171.463 196.136 171.615 195.994 171.804 195.892C171.994 195.789 172.203 195.713 172.431 195.663C172.662 195.611 172.894 195.569 173.127 195.539C173.432 195.5 173.679 195.47 173.869 195.451C174.061 195.429 174.2 195.393 174.287 195.343C174.376 195.293 174.421 195.206 174.421 195.081V195.055C174.421 194.733 174.333 194.482 174.156 194.304C173.982 194.125 173.718 194.036 173.363 194.036C172.994 194.036 172.706 194.117 172.497 194.278C172.288 194.439 172.141 194.611 172.056 194.794L171.324 194.533C171.455 194.228 171.629 193.99 171.847 193.82C172.067 193.648 172.306 193.528 172.565 193.461C172.827 193.391 173.084 193.356 173.336 193.356C173.498 193.356 173.683 193.376 173.892 193.415C174.103 193.452 174.307 193.53 174.503 193.647C174.701 193.765 174.865 193.942 174.996 194.18C175.127 194.417 175.192 194.735 175.192 195.134V198.44H174.421V197.76H174.382C174.33 197.869 174.243 197.986 174.121 198.11C173.999 198.234 173.836 198.34 173.634 198.427C173.431 198.514 173.184 198.558 172.892 198.558ZM173.01 197.865C173.315 197.865 173.572 197.805 173.781 197.685C173.992 197.565 174.151 197.411 174.258 197.221C174.367 197.032 174.421 196.833 174.421 196.623V195.918C174.388 195.957 174.317 195.993 174.205 196.026C174.097 196.056 173.97 196.083 173.826 196.107C173.685 196.129 173.547 196.149 173.412 196.166C173.279 196.181 173.171 196.194 173.088 196.205C172.888 196.231 172.7 196.274 172.526 196.333C172.354 196.389 172.215 196.475 172.108 196.591C172.003 196.704 171.951 196.859 171.951 197.055C171.951 197.323 172.05 197.525 172.249 197.662C172.449 197.797 172.703 197.865 173.01 197.865ZM176.916 200.322C176.786 200.322 176.669 200.311 176.567 200.289C176.464 200.269 176.394 200.25 176.354 200.23L176.55 199.551C176.738 199.599 176.903 199.616 177.047 199.603C177.191 199.59 177.318 199.526 177.429 199.41C177.542 199.297 177.646 199.113 177.74 198.858L177.883 198.466L176.028 193.422H176.864L178.249 197.421H178.302L179.687 193.422H180.523L178.393 199.172C178.297 199.431 178.178 199.645 178.037 199.815C177.895 199.987 177.731 200.115 177.544 200.198C177.358 200.28 177.149 200.322 176.916 200.322Z" fill="#111111"/>
<path d="M216.629 191.749H217.44V196.532C217.44 196.959 217.361 197.322 217.204 197.62C217.048 197.918 216.826 198.145 216.541 198.299C216.256 198.454 215.919 198.531 215.532 198.531C215.166 198.531 214.84 198.465 214.555 198.332C214.269 198.197 214.045 198.005 213.882 197.757C213.718 197.509 213.637 197.214 213.637 196.872H214.434C214.434 197.061 214.481 197.227 214.574 197.368C214.67 197.508 214.801 197.617 214.966 197.695C215.132 197.773 215.32 197.813 215.532 197.813C215.765 197.813 215.963 197.764 216.126 197.666C216.29 197.568 216.414 197.424 216.499 197.234C216.586 197.043 216.629 196.809 216.629 196.532V191.749ZM222.121 196.388V193.422H222.892V198.44H222.121V197.591H222.069C221.951 197.845 221.768 198.062 221.52 198.241C221.272 198.417 220.958 198.505 220.579 198.505C220.266 198.505 219.987 198.437 219.743 198.299C219.499 198.16 219.307 197.951 219.168 197.672C219.028 197.391 218.959 197.037 218.959 196.61V193.422H219.73V196.558C219.73 196.924 219.832 197.216 220.037 197.434C220.244 197.651 220.507 197.76 220.828 197.76C221.019 197.76 221.214 197.711 221.412 197.613C221.613 197.515 221.78 197.365 221.915 197.163C222.053 196.96 222.121 196.702 222.121 196.388ZM225.076 191.749V198.44H224.304V191.749H225.076Z" fill="#111111"/>
<path d="M263.415 193.422C263.376 193.091 263.217 192.834 262.938 192.651C262.66 192.468 262.318 192.376 261.913 192.376C261.616 192.376 261.357 192.424 261.135 192.52C260.915 192.616 260.743 192.748 260.619 192.915C260.497 193.083 260.436 193.274 260.436 193.487C260.436 193.666 260.478 193.819 260.563 193.948C260.65 194.074 260.762 194.18 260.897 194.265C261.032 194.347 261.173 194.416 261.321 194.47C261.469 194.523 261.605 194.565 261.73 194.598L262.409 194.781C262.583 194.827 262.777 194.89 262.991 194.97C263.206 195.051 263.412 195.161 263.608 195.3C263.806 195.438 263.97 195.614 264.098 195.83C264.227 196.045 264.291 196.31 264.291 196.623C264.291 196.985 264.196 197.312 264.007 197.604C263.819 197.895 263.545 198.127 263.183 198.299C262.824 198.472 262.387 198.558 261.873 198.558C261.394 198.558 260.979 198.48 260.629 198.326C260.28 198.171 260.006 197.955 259.805 197.679C259.607 197.402 259.495 197.081 259.469 196.715H260.305C260.327 196.968 260.412 197.177 260.56 197.342C260.71 197.506 260.9 197.628 261.129 197.708C261.359 197.787 261.608 197.826 261.873 197.826C262.183 197.826 262.46 197.776 262.706 197.675C262.953 197.573 263.148 197.432 263.291 197.251C263.435 197.068 263.507 196.854 263.507 196.61C263.507 196.388 263.445 196.207 263.321 196.068C263.197 195.929 263.033 195.815 262.831 195.728C262.628 195.641 262.409 195.565 262.174 195.5L261.351 195.264C260.828 195.114 260.414 194.9 260.109 194.621C259.804 194.342 259.652 193.977 259.652 193.526C259.652 193.152 259.753 192.825 259.956 192.546C260.16 192.265 260.435 192.047 260.779 191.893C261.125 191.736 261.512 191.658 261.939 191.658C262.37 191.658 262.753 191.735 263.089 191.89C263.424 192.042 263.69 192.251 263.886 192.517C264.084 192.783 264.189 193.084 264.2 193.422H263.415ZM267.623 198.544C267.139 198.544 266.722 198.438 266.371 198.224C266.023 198.009 265.754 197.708 265.564 197.323C265.377 196.935 265.283 196.484 265.283 195.97C265.283 195.456 265.377 195.003 265.564 194.611C265.754 194.217 266.017 193.91 266.355 193.69C266.695 193.467 267.091 193.356 267.544 193.356C267.806 193.356 268.064 193.4 268.318 193.487C268.573 193.574 268.805 193.716 269.014 193.912C269.223 194.106 269.39 194.363 269.514 194.683C269.638 195.003 269.7 195.397 269.7 195.866V196.192H265.832V195.526H268.916C268.916 195.243 268.86 194.99 268.746 194.768C268.635 194.546 268.476 194.37 268.269 194.242C268.065 194.113 267.823 194.049 267.544 194.049C267.237 194.049 266.971 194.125 266.747 194.278C266.525 194.428 266.354 194.624 266.234 194.866C266.114 195.108 266.054 195.367 266.054 195.643V196.088C266.054 196.467 266.12 196.788 266.25 197.051C266.383 197.313 266.567 197.512 266.803 197.649C267.038 197.784 267.311 197.852 267.623 197.852C267.825 197.852 268.008 197.824 268.171 197.767C268.337 197.708 268.48 197.621 268.599 197.506C268.719 197.388 268.812 197.242 268.877 197.068L269.622 197.277C269.544 197.53 269.412 197.752 269.227 197.943C269.042 198.133 268.813 198.281 268.541 198.388C268.268 198.492 267.962 198.544 267.623 198.544ZM270.873 200.322V193.422H271.618V194.219H271.71C271.766 194.132 271.845 194.021 271.945 193.886C272.047 193.748 272.193 193.626 272.383 193.52C272.574 193.411 272.834 193.356 273.16 193.356C273.583 193.356 273.955 193.462 274.278 193.673C274.6 193.885 274.851 194.184 275.032 194.572C275.213 194.959 275.303 195.417 275.303 195.944C275.303 196.475 275.213 196.936 275.032 197.326C274.851 197.714 274.601 198.014 274.281 198.228C273.961 198.439 273.591 198.544 273.173 198.544C272.851 198.544 272.593 198.491 272.399 198.384C272.205 198.276 272.056 198.152 271.951 198.015C271.847 197.876 271.766 197.76 271.71 197.669H271.644V200.322H270.873ZM271.631 195.931C271.631 196.31 271.687 196.644 271.798 196.934C271.909 197.221 272.071 197.447 272.285 197.61C272.498 197.771 272.759 197.852 273.069 197.852C273.391 197.852 273.66 197.767 273.876 197.597C274.093 197.425 274.257 197.194 274.366 196.904C274.477 196.613 274.532 196.288 274.532 195.931C274.532 195.578 274.478 195.26 274.369 194.977C274.262 194.692 274.1 194.466 273.882 194.301C273.667 194.133 273.395 194.049 273.069 194.049C272.755 194.049 272.492 194.129 272.278 194.288C272.065 194.444 271.903 194.664 271.795 194.947C271.686 195.228 271.631 195.556 271.631 195.931Z" fill="#111111"/>
<path d="M314.477 191.749V198.44H313.693L310.047 193.187H309.981V198.44H309.171V191.749H309.955L313.614 197.016H313.68V191.749H314.477ZM318.032 198.544C317.579 198.544 317.182 198.437 316.84 198.221C316.5 198.005 316.234 197.704 316.043 197.316C315.853 196.928 315.758 196.475 315.758 195.957C315.758 195.434 315.853 194.978 316.043 194.588C316.234 194.198 316.5 193.895 316.84 193.68C317.182 193.464 317.579 193.356 318.032 193.356C318.485 193.356 318.882 193.464 319.221 193.68C319.563 193.895 319.829 194.198 320.019 194.588C320.21 194.978 320.306 195.434 320.306 195.957C320.306 196.475 320.21 196.928 320.019 197.316C319.829 197.704 319.563 198.005 319.221 198.221C318.882 198.437 318.485 198.544 318.032 198.544ZM318.032 197.852C318.376 197.852 318.66 197.764 318.882 197.587C319.104 197.411 319.268 197.179 319.375 196.891C319.482 196.604 319.535 196.292 319.535 195.957C319.535 195.622 319.482 195.309 319.375 195.019C319.268 194.73 319.104 194.496 318.882 194.317C318.66 194.138 318.376 194.049 318.032 194.049C317.688 194.049 317.405 194.138 317.183 194.317C316.961 194.496 316.796 194.73 316.69 195.019C316.583 195.309 316.529 195.622 316.529 195.957C316.529 196.292 316.583 196.604 316.69 196.891C316.796 197.179 316.961 197.411 317.183 197.587C317.405 197.764 317.688 197.852 318.032 197.852ZM325.407 193.422L323.551 198.44H322.767L320.911 193.422H321.748L323.133 197.421H323.185L324.57 193.422H325.407Z" fill="#111111"/>
<circle cx="47.0201" cy="107.1" r="3.22" fill="#276AD9"/>
<circle cx="96.7" cy="83.18" r="3.22" fill="#276AD9"/>
<circle cx="145.46" cy="105.26" r="3.22" fill="#276AD9"/>
<circle cx="194.22" cy="132.86" r="3.22" fill="#276AD9"/>
<circle cx="242.98" cy="158.62" r="3.22" fill="#276AD9"/>
<circle cx="291.74" cy="132.86" r="3.22" fill="#276AD9"/>
<circle cx="340.5" cy="108.02" r="3.22" fill="#276AD9"/>
<path d="M47.48 106.64L97.16 83.1802L145.46 106.64L193.76 132.86L242.98 158.62L291.74 132.86L340.96 106.64" stroke="#276AD9" stroke-width="1.84"/>
</svg>
