<svg width="351" height="225" viewBox="0 0 351 225" fill="none" xmlns="http://www.w3.org/2000/svg">
<rect width="351" height="225" fill="#D9D9D9"/>
<rect x="47.1722" y="33.6204" width="295.519" height="153.301" stroke="#F5F5F5" stroke-width="0.923497"/>
<path d="M46.7104 83.9507H343.153" stroke="#F5F5F5" stroke-width="0.923497"/>
<path d="M46.7104 59.0166H343.153" stroke="#F5F5F5" stroke-width="0.923497"/>
<path d="M46.7104 108.885H343.153" stroke="#F5F5F5" stroke-width="0.923497"/>
<path d="M46.7104 133.82H343.153" stroke="#F5F5F5" stroke-width="0.923497"/>
<path d="M46.7104 158.754H343.153" stroke="#F5F5F5" stroke-width="0.923497"/>
<path d="M96.5793 33.1587L96.5793 187.383" stroke="#F5F5F5" stroke-width="0.923497"/>
<path d="M145.525 33.1587L145.525 187.383" stroke="#F5F5F5" stroke-width="0.923497"/>
<path d="M194.47 33.1587L194.47 187.383" stroke="#F5F5F5" stroke-width="0.923497"/>
<path d="M243.415 33.1587L243.415 187.383" stroke="#F5F5F5" stroke-width="0.923497"/>
<path d="M292.361 33.1587L292.361 187.383" stroke="#F5F5F5" stroke-width="0.923497"/>
<path d="M13.13 187.301V186.592L15.7903 183.68C16.1025 183.339 16.3596 183.043 16.5616 182.791C16.7636 182.536 16.9132 182.298 17.0102 182.075C17.1099 181.849 17.1598 181.613 17.1598 181.366C17.1598 181.083 17.0916 180.838 16.9551 180.63C16.8213 180.423 16.6377 180.263 16.4042 180.15C16.1707 180.037 15.9083 179.981 15.6171 179.981C15.3075 179.981 15.0373 180.045 14.8064 180.174C14.5782 180.3 14.4011 180.477 14.2752 180.705C14.1519 180.933 14.0902 181.201 14.0902 181.508H13.1615C13.1615 181.036 13.2703 180.621 13.4881 180.264C13.7058 179.908 14.0023 179.629 14.3775 179.43C14.7553 179.231 15.179 179.131 15.6486 179.131C16.1208 179.131 16.5393 179.231 16.904 179.43C17.2687 179.629 17.5546 179.898 17.7619 180.237C17.9692 180.575 18.0728 180.952 18.0728 181.366C18.0728 181.663 18.019 181.953 17.9114 182.236C17.8065 182.517 17.6228 182.83 17.3605 183.177C17.1008 183.52 16.74 183.94 16.2783 184.436L14.468 186.372V186.435H18.2145V187.301H13.13ZM22.4686 187.411C21.8757 187.411 21.3706 187.25 20.9535 186.927C20.5363 186.602 20.2176 186.131 19.9972 185.514C19.7768 184.895 19.6666 184.147 19.6666 183.271C19.6666 182.4 19.7768 181.656 19.9972 181.04C20.2202 180.42 20.5403 179.948 20.9574 179.623C21.3772 179.295 21.8809 179.131 22.4686 179.131C23.0563 179.131 23.5587 179.295 23.9758 179.623C24.3956 179.948 24.7157 180.42 24.936 181.04C25.1591 181.656 25.2706 182.4 25.2706 183.271C25.2706 184.147 25.1604 184.895 24.94 185.514C24.7196 186.131 24.4008 186.602 23.9837 186.927C23.5665 187.25 23.0615 187.411 22.4686 187.411ZM22.4686 186.545C23.0563 186.545 23.5128 186.262 23.8381 185.695C24.1634 185.128 24.3261 184.32 24.3261 183.271C24.3261 182.573 24.2513 181.979 24.1018 181.488C23.9548 180.998 23.7423 180.624 23.4642 180.367C23.1887 180.11 22.8569 179.981 22.4686 179.981C21.8861 179.981 21.431 180.268 21.103 180.843C20.7751 181.415 20.6111 182.224 20.6111 183.271C20.6111 183.969 20.6846 184.562 20.8315 185.05C20.9784 185.538 21.1896 185.909 21.4651 186.163C21.7432 186.418 22.0777 186.545 22.4686 186.545ZM29.3948 187.411C28.8019 187.411 28.2968 187.25 27.8797 186.927C27.4625 186.602 27.1438 186.131 26.9234 185.514C26.703 184.895 26.5928 184.147 26.5928 183.271C26.5928 182.4 26.703 181.656 26.9234 181.04C27.1464 180.42 27.4665 179.948 27.8836 179.623C28.3034 179.295 28.8071 179.131 29.3948 179.131C29.9825 179.131 30.4849 179.295 30.9021 179.623C31.3218 179.948 31.6419 180.42 31.8623 181.04C32.0853 181.656 32.1968 182.4 32.1968 183.271C32.1968 184.147 32.0866 184.895 31.8662 185.514C31.6458 186.131 31.3271 186.602 30.9099 186.927C30.4928 187.25 29.9877 187.411 29.3948 187.411ZM29.3948 186.545C29.9825 186.545 30.439 186.262 30.7643 185.695C31.0896 185.128 31.2523 184.32 31.2523 183.271C31.2523 182.573 31.1775 181.979 31.028 181.488C30.8811 180.998 30.6686 180.624 30.3905 180.367C30.115 180.11 29.7831 179.981 29.3948 179.981C28.8124 179.981 28.3572 180.268 28.0292 180.843C27.7013 181.415 27.5373 182.224 27.5373 183.271C27.5373 183.969 27.6108 184.562 27.7577 185.05C27.9046 185.538 28.1158 185.909 28.3913 186.163C28.6694 186.418 29.0039 186.545 29.3948 186.545Z" fill="#111111"/>
<path d="M12.5407 132.085V131.282L16.0825 125.678H16.6649V126.922H16.2714L13.5953 131.156V131.219H18.365V132.085H12.5407ZM16.3343 133.738V131.841V131.467V125.678H17.2631V133.738H16.3343ZM22.4686 133.848C21.8757 133.848 21.3706 133.687 20.9535 133.364C20.5363 133.039 20.2176 132.568 19.9972 131.951C19.7768 131.332 19.6666 130.584 19.6666 129.708C19.6666 128.837 19.7768 128.093 19.9972 127.477C20.2202 126.857 20.5403 126.385 20.9574 126.06C21.3772 125.732 21.8809 125.568 22.4686 125.568C23.0563 125.568 23.5587 125.732 23.9758 126.06C24.3956 126.385 24.7157 126.857 24.936 127.477C25.1591 128.093 25.2706 128.837 25.2706 129.708C25.2706 130.584 25.1604 131.332 24.94 131.951C24.7196 132.568 24.4008 133.039 23.9837 133.364C23.5665 133.687 23.0615 133.848 22.4686 133.848ZM22.4686 132.982C23.0563 132.982 23.5128 132.699 23.8381 132.132C24.1634 131.565 24.3261 130.757 24.3261 129.708C24.3261 129.01 24.2513 128.416 24.1018 127.925C23.9548 127.435 23.7423 127.061 23.4642 126.804C23.1888 126.547 22.8569 126.418 22.4686 126.418C21.8861 126.418 21.431 126.705 21.103 127.28C20.7751 127.852 20.6111 128.661 20.6111 129.708C20.6111 130.406 20.6846 130.999 20.8315 131.487C20.9784 131.975 21.1896 132.346 21.4651 132.6C21.7432 132.855 22.0777 132.982 22.4686 132.982ZM29.3948 133.848C28.8019 133.848 28.2968 133.687 27.8797 133.364C27.4625 133.039 27.1438 132.568 26.9234 131.951C26.703 131.332 26.5928 130.584 26.5928 129.708C26.5928 128.837 26.703 128.093 26.9234 127.477C27.1464 126.857 27.4665 126.385 27.8836 126.06C28.3034 125.732 28.8071 125.568 29.3948 125.568C29.9825 125.568 30.4849 125.732 30.9021 126.06C31.3218 126.385 31.6419 126.857 31.8623 127.477C32.0853 128.093 32.1968 128.837 32.1968 129.708C32.1968 130.584 32.0866 131.332 31.8662 131.951C31.6458 132.568 31.3271 133.039 30.9099 133.364C30.4928 133.687 29.9877 133.848 29.3948 133.848ZM29.3948 132.982C29.9825 132.982 30.439 132.699 30.7643 132.132C31.0896 131.565 31.2523 130.757 31.2523 129.708C31.2523 129.01 31.1775 128.416 31.028 127.925C30.8811 127.435 30.6686 127.061 30.3905 126.804C30.115 126.547 29.7831 126.418 29.3948 126.418C28.8124 126.418 28.3572 126.705 28.0292 127.28C27.7013 127.852 27.5373 128.661 27.5373 129.708C27.5373 130.406 27.6108 130.999 27.7577 131.487C27.9046 131.975 28.1158 132.346 28.3913 132.6C28.6694 132.855 29.0039 132.982 29.3948 132.982Z" fill="#111111"/>
<path d="M15.6004 83.9788C15.2698 83.9736 14.9393 83.9106 14.6087 83.7899C14.2781 83.6693 13.9764 83.4659 13.7036 83.18C13.4307 82.8914 13.2116 82.5018 13.0463 82.0112C12.8811 81.5179 12.7984 80.8988 12.7984 80.1537C12.7984 79.4401 12.8653 78.8078 12.9991 78.2568C13.1329 77.7033 13.3271 77.2376 13.5816 76.8598C13.836 76.4794 14.143 76.1908 14.5024 75.994C14.8645 75.7972 15.2725 75.6988 15.7263 75.6988C16.1776 75.6988 16.579 75.7894 16.9305 75.9704C17.2847 76.1488 17.5733 76.398 17.7963 76.7181C18.0193 77.0382 18.1636 77.4068 18.2292 77.8239H17.269C17.1798 77.4619 17.0066 77.1615 16.7495 76.9227C16.4924 76.684 16.1513 76.5646 15.7263 76.5646C15.1019 76.5646 14.61 76.8362 14.2506 77.3792C13.8938 77.9223 13.714 78.6845 13.7114 79.6657H13.7744C13.9213 79.4427 14.0958 79.2525 14.2978 79.0951C14.5024 78.935 14.7281 78.8117 14.9747 78.7251C15.2213 78.6386 15.4823 78.5953 15.7578 78.5953C16.2196 78.5953 16.642 78.7107 17.025 78.9416C17.408 79.1698 17.715 79.486 17.9459 79.89C18.1767 80.2914 18.2922 80.7518 18.2922 81.2713C18.2922 81.7698 18.1807 82.2263 17.9577 82.6408C17.7347 83.0527 17.4212 83.3807 17.0171 83.6247C16.6157 83.866 16.1435 83.9841 15.6004 83.9788ZM15.6004 83.1131C15.931 83.1131 16.2274 83.0304 16.4898 82.8651C16.7548 82.6999 16.9633 82.4782 17.1155 82.2001C17.2703 81.922 17.3477 81.6124 17.3477 81.2713C17.3477 80.9381 17.2729 80.6351 17.1234 80.3622C16.9765 80.0868 16.7731 79.8677 16.5134 79.705C16.2563 79.5424 15.9624 79.4611 15.6319 79.4611C15.3826 79.4611 15.1505 79.5109 14.9353 79.6106C14.7202 79.7077 14.5313 79.8415 14.3686 80.012C14.2086 80.1825 14.0827 80.378 13.9908 80.5984C13.899 80.8161 13.8531 81.0457 13.8531 81.2871C13.8531 81.6071 13.9279 81.9062 14.0774 82.1843C14.2296 82.4624 14.4368 82.6867 14.6992 82.8573C14.9642 83.0278 15.2646 83.1131 15.6004 83.1131ZM22.4686 83.9788C21.8757 83.9788 21.3706 83.8175 20.9535 83.4948C20.5363 83.1695 20.2176 82.6985 19.9972 82.082C19.7768 81.4628 19.6666 80.7151 19.6666 79.8388C19.6666 78.9678 19.7768 78.224 19.9972 77.6075C20.2202 76.9883 20.5403 76.5161 20.9574 76.1908C21.3772 75.8628 21.8809 75.6988 22.4686 75.6988C23.0563 75.6988 23.5587 75.8628 23.9758 76.1908C24.3956 76.5161 24.7157 76.9883 24.936 77.6075C25.1591 78.224 25.2706 78.9678 25.2706 79.8388C25.2706 80.7151 25.1604 81.4628 24.94 82.082C24.7196 82.6985 24.4008 83.1695 23.9837 83.4948C23.5665 83.8175 23.0615 83.9788 22.4686 83.9788ZM22.4686 83.1131C23.0563 83.1131 23.5128 82.8297 23.8381 82.263C24.1634 81.6963 24.3261 80.8883 24.3261 79.8388C24.3261 79.141 24.2513 78.5467 24.1018 78.0561C23.9548 77.5655 23.7423 77.1917 23.4642 76.9346C23.1887 76.6774 22.8569 76.5489 22.4686 76.5489C21.8861 76.5489 21.431 76.8362 21.103 77.4107C20.7751 77.9827 20.6111 78.792 20.6111 79.8388C20.6111 80.5367 20.6846 81.1296 20.8315 81.6176C20.9784 82.1056 21.1896 82.4768 21.4651 82.7313C21.7432 82.9858 22.0777 83.1131 22.4686 83.1131ZM29.3948 83.9788C28.8019 83.9788 28.2968 83.8175 27.8797 83.4948C27.4625 83.1695 27.1438 82.6985 26.9234 82.082C26.703 81.4628 26.5928 80.7151 26.5928 79.8388C26.5928 78.9678 26.703 78.224 26.9234 77.6075C27.1464 76.9883 27.4665 76.5161 27.8836 76.1908C28.3034 75.8628 28.8071 75.6988 29.3948 75.6988C29.9825 75.6988 30.4849 75.8628 30.9021 76.1908C31.3218 76.5161 31.6419 76.9883 31.8623 77.6075C32.0853 78.224 32.1968 78.9678 32.1968 79.8388C32.1968 80.7151 32.0866 81.4628 31.8662 82.082C31.6458 82.6985 31.3271 83.1695 30.9099 83.4948C30.4928 83.8175 29.9877 83.9788 29.3948 83.9788ZM29.3948 83.1131C29.9825 83.1131 30.439 82.8297 30.7643 82.263C31.0896 81.6963 31.2523 80.8883 31.2523 79.8388C31.2523 79.141 31.1775 78.5467 31.028 78.0561C30.8811 77.5655 30.6686 77.1917 30.3905 76.9346C30.115 76.6774 29.7831 76.5489 29.3948 76.5489C28.8124 76.5489 28.3572 76.8362 28.0292 77.4107C27.7013 77.9827 27.5373 78.792 27.5373 79.8388C27.5373 80.5367 27.6108 81.1296 27.7577 81.6176C27.9046 82.1056 28.1158 82.4768 28.3913 82.7313C28.6694 82.9858 29.0039 83.1131 29.3948 83.1131Z" fill="#111111"/>
<path d="M15.5925 34.1102C15.0521 34.1102 14.5746 34.0144 14.1601 33.8229C13.7482 33.6288 13.4268 33.3625 13.1959 33.024C12.965 32.683 12.8509 32.2947 12.8535 31.8592C12.8509 31.5181 12.9178 31.2033 13.0542 30.9147C13.1906 30.6235 13.3769 30.3808 13.613 30.1866C13.8518 29.9899 14.1181 29.8653 14.4119 29.8128V29.7656C14.0263 29.6659 13.7193 29.4494 13.491 29.1162C13.2628 28.7804 13.15 28.3987 13.1526 27.971C13.15 27.5618 13.2536 27.1958 13.4635 26.8731C13.6734 26.5504 13.962 26.2959 14.3293 26.1096C14.6992 25.9233 15.1203 25.8302 15.5925 25.8302C16.0595 25.8302 16.4767 25.9233 16.844 26.1096C17.2113 26.2959 17.4999 26.5504 17.7097 26.8731C17.9223 27.1958 18.0298 27.5618 18.0324 27.971C18.0298 28.3987 17.9131 28.7804 17.6822 29.1162C17.454 29.4494 17.1509 29.6659 16.7731 29.7656V29.8128C17.0644 29.8653 17.3267 29.9899 17.5602 30.1866C17.7937 30.3808 17.98 30.6235 18.119 30.9147C18.2581 31.2033 18.3289 31.5181 18.3315 31.8592C18.3289 32.2947 18.2109 32.683 17.9774 33.024C17.7465 33.3625 17.4251 33.6288 17.0132 33.8229C16.6039 34.0144 16.1304 34.1102 15.5925 34.1102ZM15.5925 33.2444C15.9572 33.2444 16.272 33.1854 16.537 33.0673C16.802 32.9493 17.0066 32.7827 17.1509 32.5675C17.2952 32.3524 17.3687 32.1005 17.3713 31.8119C17.3687 31.5076 17.29 31.2387 17.1352 31.0052C16.9804 30.7717 16.7692 30.588 16.5016 30.4542C16.2366 30.3204 15.9336 30.2535 15.5925 30.2535C15.2488 30.2535 14.9419 30.3204 14.6717 30.4542C14.404 30.588 14.1929 30.7717 14.0381 31.0052C13.8859 31.2387 13.8111 31.5076 13.8137 31.8119C13.8111 32.1005 13.8806 32.3524 14.0223 32.5675C14.1666 32.7827 14.3726 32.9493 14.6402 33.0673C14.9078 33.1854 15.2252 33.2444 15.5925 33.2444ZM15.5925 29.4192C15.8811 29.4192 16.1369 29.3615 16.3599 29.2461C16.5855 29.1307 16.7626 28.9693 16.8912 28.762C17.0197 28.5548 17.0853 28.3121 17.088 28.034C17.0853 27.7611 17.0211 27.5237 16.8951 27.3217C16.7692 27.1171 16.5947 26.9596 16.3717 26.8495C16.1487 26.7366 15.889 26.6802 15.5925 26.6802C15.2908 26.6802 15.0271 26.7366 14.8015 26.8495C14.5759 26.9596 14.4014 27.1171 14.2781 27.3217C14.1548 27.5237 14.0945 27.7611 14.0971 28.034C14.0945 28.3121 14.1561 28.5548 14.2821 28.762C14.4106 28.9693 14.5877 29.1307 14.8133 29.2461C15.039 29.3615 15.2987 29.4192 15.5925 29.4192ZM22.4686 34.1102C21.8757 34.1102 21.3706 33.9488 20.9535 33.6261C20.5363 33.3008 20.2176 32.8299 19.9972 32.2133C19.7768 31.5942 19.6666 30.8465 19.6666 29.9702C19.6666 29.0992 19.7768 28.3554 19.9972 27.7388C20.2202 27.1197 20.5403 26.6474 20.9574 26.3221C21.3772 25.9942 21.8809 25.8302 22.4686 25.8302C23.0563 25.8302 23.5587 25.9942 23.9758 26.3221C24.3956 26.6474 24.7157 27.1197 24.936 27.7388C25.1591 28.3554 25.2706 29.0992 25.2706 29.9702C25.2706 30.8465 25.1604 31.5942 24.94 32.2133C24.7196 32.8299 24.4008 33.3008 23.9837 33.6261C23.5665 33.9488 23.0615 34.1102 22.4686 34.1102ZM22.4686 33.2444C23.0563 33.2444 23.5128 32.9611 23.8381 32.3944C24.1634 31.8277 24.3261 31.0196 24.3261 29.9702C24.3261 29.2723 24.2513 28.6781 24.1018 28.1875C23.9548 27.6969 23.7423 27.323 23.4642 27.0659C23.1887 26.8088 22.8569 26.6802 22.4686 26.6802C21.8861 26.6802 21.431 26.9675 21.103 27.5421C20.7751 28.114 20.6111 28.9234 20.6111 29.9702C20.6111 30.6681 20.6846 31.261 20.8315 31.749C20.9784 32.237 21.1896 32.6082 21.4651 32.8627C21.7432 33.1172 22.0777 33.2444 22.4686 33.2444ZM29.3948 34.1102C28.8019 34.1102 28.2968 33.9488 27.8797 33.6261C27.4625 33.3008 27.1438 32.8299 26.9234 32.2133C26.703 31.5942 26.5928 30.8465 26.5928 29.9702C26.5928 29.0992 26.703 28.3554 26.9234 27.7388C27.1464 27.1197 27.4665 26.6474 27.8836 26.3221C28.3034 25.9942 28.8071 25.8302 29.3948 25.8302C29.9825 25.8302 30.4849 25.9942 30.9021 26.3221C31.3218 26.6474 31.6419 27.1197 31.8623 27.7388C32.0853 28.3554 32.1968 29.0992 32.1968 29.9702C32.1968 30.8465 32.0866 31.5942 31.8662 32.2133C31.6458 32.8299 31.3271 33.3008 30.9099 33.6261C30.4928 33.9488 29.9877 34.1102 29.3948 34.1102ZM29.3948 33.2444C29.9825 33.2444 30.439 32.9611 30.7643 32.3944C31.0896 31.8277 31.2523 31.0196 31.2523 29.9702C31.2523 29.2723 31.1775 28.6781 31.028 28.1875C30.8811 27.6969 30.6686 27.323 30.3905 27.0659C30.115 26.8088 29.7831 26.6802 29.3948 26.6802C28.8124 26.6802 28.3572 26.9675 28.0292 27.5421C27.7013 28.114 27.5373 28.9234 27.5373 29.9702C27.5373 30.6681 27.6108 31.261 27.7577 31.749C27.9046 32.237 28.1158 32.6082 28.3913 32.8627C28.6694 33.1172 29.0039 33.2444 29.3948 33.2444Z" fill="#111111"/>
<path d="M61.6781 193.36H62.4914V198.161C62.4914 198.59 62.4127 198.954 62.2553 199.254C62.0979 199.553 61.876 199.78 61.5896 199.936C61.3032 200.091 60.9654 200.168 60.5762 200.168C60.2089 200.168 59.8821 200.102 59.5957 199.968C59.3093 199.833 59.0841 199.64 58.9201 199.391C58.7561 199.142 58.6741 198.846 58.6741 198.503H59.4743C59.4743 198.693 59.5213 198.859 59.6153 199.001C59.7115 199.141 59.8427 199.25 60.0089 199.329C60.175 199.408 60.3642 199.447 60.5762 199.447C60.8102 199.447 61.0091 199.398 61.1731 199.299C61.3371 199.201 61.4617 199.057 61.547 198.867C61.6344 198.674 61.6781 198.439 61.6781 198.161V193.36ZM65.4987 200.195C65.1795 200.195 64.8898 200.135 64.6296 200.014C64.3695 199.892 64.1629 199.716 64.0098 199.486C63.8568 199.255 63.7803 198.975 63.7803 198.647C63.7803 198.358 63.8371 198.124 63.9508 197.945C64.0645 197.764 64.2164 197.621 64.4066 197.519C64.5969 197.416 64.8067 197.339 65.0363 197.289C65.268 197.237 65.5009 197.195 65.7348 197.164C66.0409 197.125 66.2891 197.096 66.4793 197.076C66.6717 197.054 66.8116 197.018 66.899 196.968C66.9887 196.917 67.0335 196.83 67.0335 196.705V196.679C67.0335 196.356 66.9449 196.104 66.7679 195.925C66.593 195.746 66.3273 195.656 65.9709 195.656C65.6015 195.656 65.3118 195.737 65.1019 195.899C64.892 196.06 64.7444 196.233 64.6592 196.417L63.9246 196.154C64.0557 195.848 64.2306 195.61 64.4493 195.439C64.6701 195.267 64.9106 195.147 65.1708 195.079C65.4331 195.009 65.6911 194.974 65.9447 194.974C66.1065 194.974 66.2923 194.993 66.5022 195.033C66.7143 195.07 66.9187 195.148 67.1155 195.266C67.3144 195.384 67.4795 195.562 67.6107 195.8C67.7419 196.039 67.8074 196.358 67.8074 196.758V200.077H67.0335V199.395H66.9941C66.9417 199.504 66.8542 199.621 66.7318 199.745C66.6094 199.87 66.4465 199.976 66.2431 200.064C66.0398 200.151 65.7917 200.195 65.4987 200.195ZM65.6168 199.499C65.9228 199.499 66.1808 199.439 66.3907 199.319C66.6028 199.199 66.7624 199.044 66.8695 198.853C66.9788 198.663 67.0335 198.463 67.0335 198.253V197.545C67.0007 197.584 66.9286 197.62 66.817 197.653C66.7077 197.684 66.5809 197.711 66.4366 197.735C66.2945 197.757 66.1557 197.777 66.0201 197.794C65.8868 197.809 65.7786 197.823 65.6955 197.834C65.4943 197.86 65.3063 197.902 65.1314 197.961C64.9587 198.018 64.8188 198.105 64.7116 198.22C64.6067 198.334 64.5542 198.489 64.5542 198.686C64.5542 198.955 64.6537 199.158 64.8527 199.296C65.0538 199.432 65.3085 199.499 65.6168 199.499ZM69.994 197.046V200.077H69.2201V195.039H69.9678V195.826H70.0334C70.1514 195.571 70.3307 195.365 70.5712 195.21C70.8117 195.053 71.1222 194.974 71.5026 194.974C71.8436 194.974 72.1421 195.044 72.3979 195.184C72.6537 195.321 72.8526 195.531 72.9947 195.813C73.1369 196.093 73.2079 196.447 73.2079 196.876V200.077H72.434V196.928C72.434 196.533 72.3312 196.224 72.1257 196.004C71.9202 195.781 71.6381 195.669 71.2796 195.669C71.0325 195.669 70.8117 195.723 70.6171 195.83C70.4247 195.937 70.2728 196.093 70.1613 196.299C70.0498 196.504 69.994 196.753 69.994 197.046Z" fill="#111111"/>
<path d="M115.746 193.36H116.717L118.999 198.935H119.078L121.361 193.36H122.331V200.077H121.57V194.974H121.505L119.406 200.077H118.671L116.573 194.974H116.507V200.077H115.746V193.36ZM125.339 200.195C125.02 200.195 124.73 200.135 124.47 200.014C124.21 199.892 124.004 199.716 123.85 199.486C123.697 199.255 123.621 198.975 123.621 198.647C123.621 198.358 123.678 198.124 123.791 197.945C123.905 197.764 124.057 197.621 124.247 197.519C124.437 197.416 124.647 197.339 124.877 197.289C125.109 197.237 125.342 197.195 125.575 197.164C125.882 197.125 126.13 197.096 126.32 197.076C126.512 197.054 126.652 197.018 126.74 196.968C126.829 196.917 126.874 196.83 126.874 196.705V196.679C126.874 196.356 126.786 196.104 126.609 195.925C126.434 195.746 126.168 195.656 125.812 195.656C125.442 195.656 125.152 195.737 124.943 195.899C124.733 196.06 124.585 196.233 124.5 196.417L123.765 196.154C123.896 195.848 124.071 195.61 124.29 195.439C124.511 195.267 124.751 195.147 125.011 195.079C125.274 195.009 125.532 194.974 125.785 194.974C125.947 194.974 126.133 194.993 126.343 195.033C126.555 195.07 126.759 195.148 126.956 195.266C127.155 195.384 127.32 195.562 127.451 195.8C127.583 196.039 127.648 196.358 127.648 196.758V200.077H126.874V199.395H126.835C126.782 199.504 126.695 199.621 126.572 199.745C126.45 199.87 126.287 199.976 126.084 200.064C125.88 200.151 125.632 200.195 125.339 200.195ZM125.457 199.499C125.763 199.499 126.021 199.439 126.231 199.319C126.443 199.199 126.603 199.044 126.71 198.853C126.819 198.663 126.874 198.463 126.874 198.253V197.545C126.841 197.584 126.769 197.62 126.658 197.653C126.548 197.684 126.422 197.711 126.277 197.735C126.135 197.757 125.996 197.777 125.861 197.794C125.727 197.809 125.619 197.823 125.536 197.834C125.335 197.86 125.147 197.902 124.972 197.961C124.799 198.018 124.659 198.105 124.552 198.22C124.447 198.334 124.395 198.489 124.395 198.686C124.395 198.955 124.494 199.158 124.693 199.296C124.894 199.432 125.149 199.499 125.457 199.499ZM129.061 200.077V195.039H129.808V195.8H129.861C129.953 195.551 130.119 195.349 130.359 195.194C130.6 195.038 130.871 194.961 131.173 194.961C131.23 194.961 131.301 194.962 131.386 194.964C131.471 194.966 131.536 194.969 131.579 194.974V195.761C131.553 195.754 131.493 195.744 131.399 195.731C131.307 195.716 131.21 195.708 131.107 195.708C130.862 195.708 130.644 195.76 130.451 195.863C130.261 195.963 130.11 196.103 129.999 196.282C129.889 196.459 129.835 196.662 129.835 196.889V200.077H129.061Z" fill="#111111"/>
<path d="M163.929 193.36H164.9L167.183 198.935H167.261L169.544 193.36H170.515V200.077H169.754V194.974H169.688L167.589 200.077H166.855L164.756 194.974H164.69V200.077H163.929V193.36ZM173.523 200.195C173.203 200.195 172.914 200.135 172.654 200.014C172.393 199.892 172.187 199.716 172.034 199.486C171.881 199.255 171.804 198.975 171.804 198.647C171.804 198.358 171.861 198.124 171.975 197.945C172.088 197.764 172.24 197.621 172.431 197.519C172.621 197.416 172.831 197.339 173.06 197.289C173.292 197.237 173.525 197.195 173.759 197.164C174.065 197.125 174.313 197.096 174.503 197.076C174.696 197.054 174.835 197.018 174.923 196.968C175.013 196.917 175.057 196.83 175.057 196.705V196.679C175.057 196.356 174.969 196.104 174.792 195.925C174.617 195.746 174.351 195.656 173.995 195.656C173.625 195.656 173.336 195.737 173.126 195.899C172.916 196.06 172.768 196.233 172.683 196.417L171.948 196.154C172.08 195.848 172.255 195.61 172.473 195.439C172.694 195.267 172.934 195.147 173.195 195.079C173.457 195.009 173.715 194.974 173.969 194.974C174.13 194.974 174.316 194.993 174.526 195.033C174.738 195.07 174.943 195.148 175.139 195.266C175.338 195.384 175.503 195.562 175.635 195.8C175.766 196.039 175.831 196.358 175.831 196.758V200.077H175.057V199.395H175.018C174.966 199.504 174.878 199.621 174.756 199.745C174.633 199.87 174.47 199.976 174.267 200.064C174.064 200.151 173.816 200.195 173.523 200.195ZM173.641 199.499C173.947 199.499 174.205 199.439 174.415 199.319C174.627 199.199 174.786 199.044 174.893 198.853C175.003 198.663 175.057 198.463 175.057 198.253V197.545C175.025 197.584 174.952 197.62 174.841 197.653C174.732 197.684 174.605 197.711 174.461 197.735C174.318 197.757 174.18 197.777 174.044 197.794C173.911 197.809 173.802 197.823 173.719 197.834C173.518 197.86 173.33 197.902 173.155 197.961C172.983 198.018 172.843 198.105 172.736 198.22C172.631 198.334 172.578 198.489 172.578 198.686C172.578 198.955 172.678 199.158 172.877 199.296C173.078 199.432 173.332 199.499 173.641 199.499ZM177.562 201.966C177.431 201.966 177.314 201.955 177.211 201.933C177.108 201.913 177.037 201.893 176.998 201.874L177.195 201.192C177.383 201.24 177.549 201.257 177.693 201.244C177.838 201.231 177.965 201.167 178.077 201.051C178.191 200.937 178.294 200.752 178.389 200.496L178.533 200.103L176.67 195.039H177.51L178.9 199.053H178.953L180.343 195.039H181.183L179.044 200.811C178.948 201.071 178.829 201.287 178.687 201.457C178.545 201.63 178.38 201.758 178.192 201.841C178.006 201.924 177.796 201.966 177.562 201.966Z" fill="#111111"/>
<path d="M217.426 193.36H218.24V198.161C218.24 198.59 218.161 198.954 218.004 199.254C217.846 199.553 217.624 199.78 217.338 199.936C217.051 200.091 216.714 200.168 216.324 200.168C215.957 200.168 215.63 200.102 215.344 199.968C215.058 199.833 214.832 199.64 214.668 199.391C214.504 199.142 214.422 198.846 214.422 198.503H215.223C215.223 198.693 215.27 198.859 215.364 199.001C215.46 199.141 215.591 199.25 215.757 199.329C215.923 199.408 216.112 199.447 216.324 199.447C216.558 199.447 216.757 199.398 216.921 199.299C217.085 199.201 217.21 199.057 217.295 198.867C217.383 198.674 217.426 198.439 217.426 198.161V193.36ZM222.939 198.017V195.039H223.713V200.077H222.939V199.224H222.887C222.769 199.48 222.585 199.697 222.336 199.877C222.087 200.054 221.772 200.142 221.391 200.142C221.076 200.142 220.797 200.073 220.552 199.936C220.307 199.796 220.114 199.586 219.975 199.306C219.835 199.024 219.765 198.669 219.765 198.24V195.039H220.539V198.188C220.539 198.555 220.641 198.848 220.847 199.067C221.055 199.285 221.319 199.395 221.64 199.395C221.833 199.395 222.029 199.345 222.228 199.247C222.429 199.149 222.597 198.998 222.733 198.794C222.87 198.591 222.939 198.332 222.939 198.017ZM225.905 193.36V200.077H225.131V193.36H225.905Z" fill="#111111"/>
<path d="M264.39 195.039C264.351 194.707 264.191 194.449 263.911 194.265C263.631 194.082 263.288 193.99 262.882 193.99C262.584 193.99 262.324 194.038 262.101 194.134C261.88 194.23 261.707 194.363 261.583 194.531C261.46 194.699 261.399 194.891 261.399 195.105C261.399 195.284 261.442 195.438 261.527 195.567C261.615 195.694 261.726 195.8 261.862 195.886C261.997 195.969 262.139 196.037 262.288 196.092C262.437 196.145 262.573 196.187 262.698 196.22L263.38 196.404C263.555 196.45 263.749 196.513 263.964 196.594C264.18 196.675 264.387 196.785 264.584 196.925C264.783 197.063 264.946 197.24 265.075 197.456C265.204 197.673 265.269 197.938 265.269 198.253C265.269 198.616 265.174 198.944 264.984 199.237C264.796 199.53 264.52 199.763 264.157 199.936C263.796 200.108 263.358 200.195 262.842 200.195C262.361 200.195 261.945 200.117 261.593 199.962C261.243 199.807 260.967 199.59 260.766 199.313C260.567 199.035 260.455 198.712 260.428 198.345H261.268C261.29 198.599 261.375 198.809 261.524 198.975C261.675 199.139 261.865 199.261 262.094 199.342C262.326 199.421 262.575 199.46 262.842 199.46C263.153 199.46 263.431 199.41 263.678 199.309C263.925 199.207 264.121 199.064 264.265 198.883C264.41 198.699 264.482 198.485 264.482 198.24C264.482 198.017 264.42 197.836 264.295 197.696C264.17 197.556 264.006 197.442 263.803 197.355C263.6 197.267 263.38 197.191 263.144 197.125L262.317 196.889C261.793 196.738 261.377 196.523 261.071 196.243C260.765 195.963 260.612 195.597 260.612 195.144C260.612 194.768 260.714 194.44 260.917 194.161C261.123 193.878 261.398 193.66 261.744 193.505C262.091 193.347 262.479 193.268 262.908 193.268C263.341 193.268 263.725 193.346 264.062 193.501C264.399 193.654 264.666 193.864 264.862 194.131C265.061 194.398 265.166 194.701 265.177 195.039H264.39ZM268.613 200.182C268.128 200.182 267.709 200.074 267.357 199.86C267.007 199.644 266.737 199.342 266.547 198.955C266.359 198.566 266.265 198.113 266.265 197.597C266.265 197.081 266.359 196.627 266.547 196.233C266.737 195.837 267.002 195.529 267.341 195.308C267.682 195.085 268.08 194.974 268.534 194.974C268.797 194.974 269.056 195.018 269.312 195.105C269.568 195.192 269.8 195.335 270.01 195.531C270.22 195.726 270.387 195.984 270.512 196.305C270.637 196.627 270.699 197.022 270.699 197.492V197.82H266.816V197.151H269.912C269.912 196.867 269.855 196.614 269.741 196.391C269.63 196.168 269.47 195.992 269.263 195.863C269.057 195.734 268.814 195.669 268.534 195.669C268.226 195.669 267.959 195.746 267.734 195.899C267.511 196.049 267.34 196.246 267.219 196.489C267.099 196.732 267.039 196.992 267.039 197.269V197.715C267.039 198.096 267.105 198.418 267.236 198.683C267.369 198.945 267.554 199.145 267.79 199.283C268.026 199.419 268.301 199.486 268.613 199.486C268.817 199.486 269 199.458 269.164 199.401C269.33 199.342 269.474 199.255 269.594 199.139C269.714 199.021 269.807 198.874 269.873 198.699L270.62 198.909C270.542 199.163 270.409 199.386 270.223 199.578C270.038 199.768 269.808 199.917 269.535 200.024C269.261 200.129 268.954 200.182 268.613 200.182ZM271.876 201.966V195.039H272.624V195.84H272.716C272.773 195.752 272.851 195.641 272.952 195.505C273.055 195.367 273.201 195.245 273.391 195.138C273.584 195.028 273.844 194.974 274.172 194.974C274.596 194.974 274.97 195.08 275.293 195.292C275.617 195.504 275.87 195.805 276.051 196.194C276.232 196.583 276.323 197.042 276.323 197.571C276.323 198.105 276.232 198.567 276.051 198.958C275.87 199.348 275.618 199.649 275.297 199.863C274.975 200.076 274.605 200.182 274.185 200.182C273.861 200.182 273.602 200.128 273.408 200.021C273.213 199.912 273.063 199.788 272.958 199.65C272.854 199.51 272.773 199.395 272.716 199.303H272.65V201.966H271.876ZM272.637 197.558C272.637 197.938 272.693 198.274 272.804 198.565C272.916 198.853 273.079 199.08 273.293 199.244C273.507 199.405 273.77 199.486 274.08 199.486C274.404 199.486 274.674 199.401 274.89 199.231C275.109 199.058 275.273 198.826 275.382 198.535C275.494 198.242 275.549 197.917 275.549 197.558C275.549 197.204 275.495 196.885 275.385 196.6C275.278 196.314 275.115 196.088 274.897 195.922C274.68 195.753 274.408 195.669 274.08 195.669C273.765 195.669 273.501 195.749 273.286 195.908C273.072 196.066 272.91 196.287 272.801 196.571C272.692 196.853 272.637 197.182 272.637 197.558Z" fill="#111111"/>
<path d="M315.646 193.36V200.077H314.859L311.199 194.803H311.133V200.077H310.32V193.36H311.107L314.78 198.647H314.846V193.36H315.646ZM319.215 200.182C318.76 200.182 318.361 200.073 318.018 199.857C317.677 199.64 317.41 199.338 317.217 198.949C317.027 198.559 316.932 198.105 316.932 197.584C316.932 197.06 317.027 196.602 317.217 196.21C317.41 195.819 317.677 195.515 318.018 195.298C318.361 195.082 318.76 194.974 319.215 194.974C319.669 194.974 320.067 195.082 320.408 195.298C320.752 195.515 321.018 195.819 321.209 196.21C321.401 196.602 321.497 197.06 321.497 197.584C321.497 198.105 321.401 198.559 321.209 198.949C321.018 199.338 320.752 199.64 320.408 199.857C320.067 200.073 319.669 200.182 319.215 200.182ZM319.215 199.486C319.56 199.486 319.844 199.398 320.067 199.221C320.29 199.044 320.455 198.811 320.563 198.522C320.67 198.234 320.723 197.921 320.723 197.584C320.723 197.248 320.67 196.934 320.563 196.643C320.455 196.352 320.29 196.117 320.067 195.938C319.844 195.759 319.56 195.669 319.215 195.669C318.869 195.669 318.585 195.759 318.362 195.938C318.139 196.117 317.974 196.352 317.867 196.643C317.76 196.934 317.706 197.248 317.706 197.584C317.706 197.921 317.76 198.234 317.867 198.522C317.974 198.811 318.139 199.044 318.362 199.221C318.585 199.398 318.869 199.486 319.215 199.486ZM326.617 195.039L324.754 200.077H323.967L322.105 195.039H322.944L324.335 199.053H324.387L325.778 195.039H326.617Z" fill="#111111"/>
<circle cx="48.0955" cy="134.282" r="3.23224" fill="#276AD9"/>
<circle cx="97.0411" cy="159.216" r="3.23224" fill="#276AD9"/>
<circle cx="145.986" cy="134.282" r="3.23224" fill="#276AD9"/>
<circle cx="194.932" cy="160.139" r="3.23224" fill="#276AD9"/>
<circle cx="243.877" cy="187.844" r="3.23224" fill="#276AD9"/>
<circle cx="292.822" cy="160.139" r="3.23224" fill="#276AD9"/>
<circle cx="341.768" cy="134.282" r="3.23224" fill="#276AD9"/>
<path d="M49.019 134.743L97.0409 159.678L145.986 134.743L194.932 159.678L243.877 187.844L292.822 159.678L341.768 134.743" stroke="#276AD9" stroke-width="1.84699"/>
</svg>
